<svg id="Layer_1" data-name="Layer 1" xmlns="http://www.w3.org/2000/svg" viewBox="0 0 336.48 92.81"><defs><style>.cls-1{fill:#fff;}</style></defs><path class="cls-1" d="M93.15,315.72h14.12v78.07H93.15Z" transform="translate(-93.15 -302.58)"/><path class="cls-1" d="M119.92,339.25H134v54.54H119.92Z" transform="translate(-93.15 -302.58)"/><path class="cls-1" d="M150.62,351.55h-9.31v-12.3h9.31v-4.92c0-13.37,6.63-20.22,19.46-20.22A23.64,23.64,0,0,1,182.27,317l-5.45,11.66a10.32,10.32,0,0,0-5.13-1.39c-4.39,0-7,2.78-7,7.49v4.49h12.73v12.3H164.73v42.24H150.62Z" transform="translate(-93.15 -302.58)"/><path class="cls-1" d="M211.47,395.4c-17.76,0-30.8-12.2-30.8-28.67A28.83,28.83,0,0,1,210,337.64c16,0,27.7,12.3,27.7,28.45,0,1.61-.11,3.64-.32,5.67H196.17c1.39,6.63,6.85,10.91,15,10.91,5.56,0,9.52-2,13.47-6.74l11.23,8.34C230.29,391.44,221.63,395.4,211.47,395.4Zm11.12-34.87c-.86-6.2-5.78-10.37-12.73-10.37-7.16,0-11.55,4.38-13.26,10.37Z" transform="translate(-93.15 -302.58)"/><path class="cls-1" d="M252.1,351.55h-9.3v-12.3h9.3v-4.92c0-13.37,6.63-20.22,19.47-20.22A23.64,23.64,0,0,1,283.76,317l-5.45,11.66a10.39,10.39,0,0,0-5.14-1.39c-4.38,0-6.95,2.78-6.95,7.49v4.49H279v12.3H266.22v42.24H252.1Z" transform="translate(-93.15 -302.58)"/><path id="lower_i" data-name="lower i" class="cls-1" d="M288.78,339.25H302.9v54.54H288.78Z" transform="translate(-93.15 -302.58)"/><path class="cls-1" d="M295.73,314.54c5.14,0,9.2,3.64,9.2,8.56s-4.06,8.55-9.2,8.55-9-3.63-9-8.55S290.71,314.54,295.73,314.54Zm-7,24.71H302.9v54.54H288.78Z" transform="translate(-93.15 -302.58)"/><path class="cls-1" d="M312.74,339.25h13.15v3.85c3.32-3.64,8.56-5.67,14.76-5.67,12.73,0,21.6,9,21.6,21.92v34.44H348.14V361.71c0-6.42-4.28-11.23-10.38-11.23a10.8,10.8,0,0,0-10.91,10.8v32.51H312.74Z" transform="translate(-93.15 -302.58)"/><path class="cls-1" d="M415.51,315.72v27.7a27.66,27.66,0,0,0-17-5.78,28.89,28.89,0,0,0,0,57.76,27.29,27.29,0,0,0,18-6.64v5h13.16V315.72Zm-5.17,39.95-9.82,25.17a1.19,1.19,0,0,1-1.1.75,1.18,1.18,0,0,1-1.11-.77l-3.8-10.15a1.18,1.18,0,0,0-.69-.69l-10.16-3.81a1.17,1.17,0,0,1-.76-1.1,1.18,1.18,0,0,1,.75-1.1l25.16-9.83A1.18,1.18,0,0,1,410.34,355.67Z" transform="translate(-93.15 -302.58)"/><path id="compound" class="cls-1" d="M136.79,306.64h0a13.88,13.88,0,0,0-19.61,0h0c-5.42,5.42-4.11,15.5,1.31,20.92l6.64,6.64a2.6,2.6,0,0,0,3.7,0l8-7.95A13.88,13.88,0,0,0,136.79,306.64ZM127,321.38a5.62,5.62,0,1,1,5.62-5.62A5.62,5.62,0,0,1,127,321.38Z" transform="translate(-93.15 -302.58)"/></svg>